<?xml version="1.0" encoding="utf-8"?>
<!-- Generator: Adobe Illustrator 26.0.3, SVG Export Plug-In . SVG Version: 6.00 Build 0)  -->
<svg version="1.1"
	 id="svg2" inkscape:version="0.91 r13725" sodipodi:docname="Loaf.svg" xmlns:cc="http://creativecommons.org/ns#" xmlns:dc="http://purl.org/dc/elements/1.1/" xmlns:inkscape="http://www.inkscape.org/namespaces/inkscape" xmlns:rdf="http://www.w3.org/1999/02/22-rdf-syntax-ns#" xmlns:sodipodi="http://sodipodi.sourceforge.net/DTD/sodipodi-0.dtd" xmlns:svg="http://www.w3.org/2000/svg"
	 xmlns="http://www.w3.org/2000/svg" xmlns:xlink="http://www.w3.org/1999/xlink" x="0px" y="0px" viewBox="0 0 701.9 204.9"
	 style="enable-background:new 0 0 701.9 204.9;" xml:space="preserve">
<style type="text/css">
	.st0{fill:#FFFFFF;}
</style>
<sodipodi:namedview  bordercolor="#666666" borderopacity="1" fit-margin-bottom="0" fit-margin-left="0" fit-margin-right="0" fit-margin-top="0" gridtolerance="10" guidetolerance="10" id="namedview8" inkscape:current-layer="svg2" inkscape:cx="347.32036" inkscape:cy="-31.895441" inkscape:pageopacity="0" inkscape:pageshadow="2" inkscape:window-height="837" inkscape:window-maximized="1" inkscape:window-width="1600" inkscape:window-x="-8" inkscape:window-y="-8" inkscape:zoom="0.66880146" objecttolerance="10" pagecolor="#ffffff" showgrid="false">
	</sodipodi:namedview>
<path id="path6" inkscape:connector-curvature="0" sodipodi:nodetypes="ssssssssssssssssssssssssssssssssssssssssssssssss" class="st0" d="
	M111.6,203.9c-0.2-0.1-8.1-0.7-17.7-1.2c-28.3-1.6-50.7-12-71-33C5.6,151.8-0.4,139.4,0,122.4c0.4-14.3,5.9-32,13.3-42.7
	c15.3-22.3,54.8-48.2,80.8-53.1c8.1-1.5,15.6,2,24.9,11.6c13.5,13.9,30.3,45.5,36.4,68.5c3.6,13.7,7.2,15.9,9.1,5.7
	c4-21.6-7-61.8-22.6-82.6c-2.5-3.3-4-7-3.5-8.4c1-2.7,36.8-9.6,60-11.5c11.1-0.9,15-0.5,20.1,2c19.9,10,36.7,39.7,43,75.6
	c3.5,20.2,4.2,22.4,7.3,22.4c3.7,0,5.1-10.7,4.1-30.8c-0.7-14.2-2.2-21.3-7.5-36c-3.6-10.1-9.2-21.9-12.3-26.3
	c-4.6-6.6-5.2-8.4-3.2-10.3c2.6-2.4,57.8-6.5,86.4-6.5c20.1,0,24.1,2.2,32.7,17.2c9.7,17,13.8,29.8,17,53.6
	c3.7,26.9,4.9,32.2,7.6,33.1c4.8,1.6,8.5-11,9.3-32c1-24-1.4-38.4-9-55.1c-2.9-6.4-4.8-12.5-4.1-13.6c1.4-2.2,44.1-0.7,77.1,2.6
	c15.2,1.5,21.9,3,25.1,5.5c10.7,8.4,19,39.6,19.3,72c0.1,8.1,0.8,16.3,1.5,18.2c1.3,3.4,1.6,3.3,4.7-1.4c5.1-7.8,6.9-41.2,3.5-64.9
	c-1.5-10.3-2.2-19.6-1.6-20.6c1.8-2.9,37.9,3,64.2,10.4c3.1,0.9,7.1,0.3,9.4,2.6c3.4,3.5,2.3,9.4,3.5,14.1
	c2.9,11.8,3.4,19.7,2.9,47.5c-0.3,18.4,0.1,33.4,0.9,33.4c3,0,10.3-13.3,12.7-23.3c1.4-5.8,3-21.6,3.6-35.2s1.3-25.8,1.7-27
	c0.9-2.8,28.8,10.8,45.1,21.8c15.4,10.4,22.8,19.1,31,36.1c6.9,14.3,7.4,16.4,7.4,31.1c0,19.8-2.8,27.7-15.7,44.7
	c-11.2,14.8-13.7,17.2-25.2,23.9c-18.8,11-6.1,10.6-290,10C228.5,204.4,111.7,204,111.6,203.9L111.6,203.9z"/>
</svg>
