{
    "asset" : {
        "generator" : "Khronos glTF Blender I/O v1.6.16",
        "version" : "2.0"
    },
    "scene" : 0,
    "scenes" : [
        {
            "name" : "Scene",
            "nodes" : [
                0,
                1,
                2,
                3,
                4,
                5,
                6,
                7,
                8,
                9,
                10,
                11,
                12
            ]
        }
    ],
    "nodes" : [
        {
            "name" : "Light",
            "rotation" : [
                0.16907575726509094,
                0.7558803558349609,
                -0.27217137813568115,
                0.570947527885437
            ],
            "scale" : [
                2.543804168701172,
                2.543804168701172,
                2.543804407119751
            ],
            "translation" : [
                15.973971366882324,
                11.100762367248535,
                -4.917177677154541
            ]
        },
        {
            "name" : "Camera",
            "rotation" : [
                0.41421636939048767,
                0.5249947905540466,
                -0.3252524435520172,
                0.6685927510261536
            ],
            "translation" : [
                9.508028030395508,
                5.32125997543335,
                -2.1881628036499023
            ]
        },
        {
            "mesh" : 0,
            "name" : "Plane",
            "rotation" : [
                0,
                0.7071068286895752,
                0,
                0.7071068286895752
            ],
            "scale" : [
                1.1138890981674194,
                1,
                1
            ],
            "translation" : [
                0.12702150642871857,
                0.6375769972801208,
                0.2025299072265625
            ]
        },
        {
            "mesh" : 1,
            "name" : "Plane.001",
            "rotation" : [
                -0.5,
                0.5,
                -0.4999999701976776,
                0.5
            ],
            "translation" : [
                0.12702155113220215,
                1.7532423734664917,
                1.3160591125488281
            ]
        },
        {
            "mesh" : 2,
            "name" : "Plane.002",
            "rotation" : [
                -0.5,
                0.5,
                -0.4999999701976776,
                0.5
            ],
            "translation" : [
                0.1270214319229126,
                1.7532423734664917,
                -0.7967281341552734
            ]
        },
        {
            "mesh" : 3,
            "name" : "Plane.003",
            "rotation" : [
                0,
                0.7071068286895752,
                0,
                0.7071068286895752
            ],
            "scale" : [
                1.1138890981674194,
                1,
                1
            ],
            "translation" : [
                0.12702150642871857,
                2.7535548210144043,
                0.2025299072265625
            ]
        },
        {
            "mesh" : 4,
            "name" : "Plane.004",
            "rotation" : [
                -0.7071068286895752,
                0.7071067690849304,
                0,
                -1.1520231879558196e-07
            ],
            "translation" : [
                -0.7549504637718201,
                1.7532423734664917,
                0.20810317993164062
            ]
        },
        {
            "mesh" : 5,
            "name" : "Plane.005",
            "rotation" : [
                0,
                0.7071068286895752,
                0,
                0.7071068286895752
            ],
            "scale" : [
                1.1138890981674194,
                1.0793648958206177,
                1
            ],
            "translation" : [
                0.12702150642871857,
                0.5227645635604858,
                0.2025299072265625
            ]
        },
        {
            "mesh" : 6,
            "name" : "Plane.170",
            "rotation" : [
                0,
                0.7071068286895752,
                0,
                0.7071068286895752
            ],
            "scale" : [
                0.9998021721839905,
                0.8523799180984497,
                -0.005335699301213026
            ],
            "translation" : [
                1.1340934038162231,
                0.5421011447906494,
                0.1941070556640625
            ]
        },
        {
            "mesh" : 7,
            "name" : "Untitled-1",
            "rotation" : [
                0.5,
                0.5,
                -0.5,
                0.4999999701976776
            ],
            "scale" : [
                0.48871153593063354,
                0.48871153593063354,
                0.48871153593063354
            ],
            "translation" : [
                1.3818964958190918,
                0.3992534279823303,
                0.1896381378173828
            ]
        },
        {
            "mesh" : 8,
            "name" : "enamel_pin.008",
            "rotation" : [
                -0.5788828134536743,
                -0.4499500095844269,
                0.5709399580955505,
                -0.36941468715667725
            ],
            "scale" : [
                0.31224629282951355,
                0.31224629282951355,
                0.31224626302719116
            ],
            "translation" : [
                0.04068358242511749,
                0.9956415891647339,
                0.18696212768554688
            ]
        },
        {
            "mesh" : 9,
            "name" : "Curve.004",
            "rotation" : [
                0.37001097202301025,
                0.6106095314025879,
                -0.3628632724285126,
                0.598814070224762
            ],
            "scale" : [
                9.640170097351074,
                9.640170097351074,
                9.640168190002441
            ],
            "translation" : [
                0.8657930493354797,
                0.7314213514328003,
                1.001211166381836
            ]
        },
        {
            "mesh" : 10,
            "name" : "Curve.007",
            "rotation" : [
                0.37001097202301025,
                0.6106095314025879,
                -0.3628632724285126,
                0.598814070224762
            ],
            "scale" : [
                9.640170097351074,
                9.640170097351074,
                9.640168190002441
            ],
            "translation" : [
                0.8462074995040894,
                0.7704641819000244,
                -1.0187511444091797
            ]
        }
    ],
    "materials" : [
        {
            "doubleSided" : true,
            "name" : "wood",
            "pbrMetallicRoughness" : {
                "metallicFactor" : 0,
                "roughnessFactor" : 0.5
            }
        },
        {
            "doubleSided" : true,
            "name" : "Material.004",
            "pbrMetallicRoughness" : {}
        },
        {
            "alphaMode" : "BLEND",
            "doubleSided" : true,
            "name" : "Untitled-1",
            "pbrMetallicRoughness" : {
                "baseColorTexture" : {
                    "index" : 0
                },
                "metallicFactor" : 0
            }
        },
        {
            "doubleSided" : true,
            "name" : "Material.002",
            "pbrMetallicRoughness" : {}
        }
    ],
    "meshes" : [
        {
            "name" : "Plane",
            "primitives" : [
                {
                    "attributes" : {
                        "POSITION" : 0,
                        "TEXCOORD_0" : 1
                    },
                    "indices" : 2,
                    "material" : 0
                }
            ]
        },
        {
            "name" : "Plane.002",
            "primitives" : [
                {
                    "attributes" : {
                        "POSITION" : 3,
                        "TEXCOORD_0" : 4
                    },
                    "indices" : 2,
                    "material" : 0
                }
            ]
        },
        {
            "name" : "Plane.004",
            "primitives" : [
                {
                    "attributes" : {
                        "POSITION" : 5,
                        "TEXCOORD_0" : 6
                    },
                    "indices" : 2,
                    "material" : 0
                }
            ]
        },
        {
            "name" : "Plane.005",
            "primitives" : [
                {
                    "attributes" : {
                        "POSITION" : 7,
                        "TEXCOORD_0" : 8
                    },
                    "indices" : 2,
                    "material" : 0
                }
            ]
        },
        {
            "name" : "Plane.006",
            "primitives" : [
                {
                    "attributes" : {
                        "POSITION" : 9,
                        "TEXCOORD_0" : 10
                    },
                    "indices" : 2,
                    "material" : 0
                }
            ]
        },
        {
            "name" : "Plane.007",
            "primitives" : [
                {
                    "attributes" : {
                        "POSITION" : 11,
                        "TEXCOORD_0" : 12
                    },
                    "indices" : 13,
                    "material" : 0
                }
            ]
        },
        {
            "name" : "Plane.191",
            "primitives" : [
                {
                    "attributes" : {
                        "POSITION" : 14,
                        "TEXCOORD_0" : 15
                    },
                    "indices" : 13,
                    "material" : 1
                }
            ]
        },
        {
            "name" : "Untitled-1",
            "primitives" : [
                {
                    "attributes" : {
                        "POSITION" : 16,
                        "TEXCOORD_0" : 17
                    },
                    "indices" : 18,
                    "material" : 2
                }
            ]
        },
        {
            "name" : "enamel_pin.008",
            "primitives" : [
                {
                    "attributes" : {
                        "POSITION" : 19,
                        "TEXCOORD_0" : 20
                    },
                    "indices" : 21,
                    "material" : 1
                }
            ]
        },
        {
            "name" : "Curve.003",
            "primitives" : [
                {
                    "attributes" : {
                        "POSITION" : 22,
                        "TEXCOORD_0" : 23
                    },
                    "indices" : 24,
                    "material" : 3
                }
            ]
        },
        {
            "name" : "Curve.005",
            "primitives" : [
                {
                    "attributes" : {
                        "POSITION" : 25,
                        "TEXCOORD_0" : 26
                    },
                    "indices" : 27,
                    "material" : 3
                }
            ]
        }
    ],
    "textures" : [
        {
            "sampler" : 0,
            "source" : 0
        }
    ],
    "images" : [
        {
            "bufferView" : 19,
            "mimeType" : "image/png",
            "name" : "Untitled-1"
        }
    ],
    "accessors" : [
        {
            "bufferView" : 0,
            "componentType" : 5126,
            "count" : 12,
            "max" : [
                1,
                0.11556731909513474,
                1.2374839782714844
            ],
            "min" : [
                -1,
                0,
                -1
            ],
            "type" : "VEC3"
        },
        {
            "bufferView" : 1,
            "componentType" : 5126,
            "count" : 12,
            "type" : "VEC2"
        },
        {
            "bufferView" : 2,
            "componentType" : 5123,
            "count" : 42,
            "type" : "SCALAR"
        },
        {
            "bufferView" : 3,
            "componentType" : 5126,
            "count" : 12,
            "max" : [
                1,
                0.11556731909513474,
                1.2374839782714844
            ],
            "min" : [
                -1,
                -1.0380753145966537e-08,
                -1
            ],
            "type" : "VEC3"
        },
        {
            "bufferView" : 4,
            "componentType" : 5126,
            "count" : 12,
            "type" : "VEC2"
        },
        {
            "bufferView" : 5,
            "componentType" : 5126,
            "count" : 12,
            "max" : [
                1,
                0.11556731909513474,
                1.2374839782714844
            ],
            "min" : [
                -1,
                -1.0380753145966537e-08,
                -1
            ],
            "type" : "VEC3"
        },
        {
            "bufferView" : 6,
            "componentType" : 5126,
            "count" : 12,
            "type" : "VEC2"
        },
        {
            "bufferView" : 7,
            "componentType" : 5126,
            "count" : 12,
            "max" : [
                1,
                0.11556731909513474,
                1.2374839782714844
            ],
            "min" : [
                -1,
                0,
                -1
            ],
            "type" : "VEC3"
        },
        {
            "bufferView" : 8,
            "componentType" : 5126,
            "count" : 12,
            "type" : "VEC2"
        },
        {
            "bufferView" : 9,
            "componentType" : 5126,
            "count" : 12,
            "max" : [
                1,
                0.11556731909513474,
                1
            ],
            "min" : [
                -1,
                0,
                -1
            ],
            "type" : "VEC3"
        },
        {
            "bufferView" : 10,
            "componentType" : 5126,
            "count" : 12,
            "type" : "VEC2"
        },
        {
            "bufferView" : 11,
            "componentType" : 5126,
            "count" : 20,
            "max" : [
                1,
                0.11556731909513474,
                1.2374839782714844
            ],
            "min" : [
                -1,
                -0.4528895616531372,
                -1
            ],
            "type" : "VEC3"
        },
        {
            "bufferView" : 12,
            "componentType" : 5126,
            "count" : 20,
            "type" : "VEC2"
        },
        {
            "bufferView" : 13,
            "componentType" : 5123,
            "count" : 90,
            "type" : "SCALAR"
        },
        {
            "bufferView" : 14,
            "componentType" : 5126,
            "count" : 20,
            "max" : [
                1,
                0.11556731909513474,
                -43.50849533081055
            ],
            "min" : [
                -1,
                -0.4528895616531372,
                -45.50849533081055
            ],
            "type" : "VEC3"
        },
        {
            "bufferView" : 15,
            "componentType" : 5126,
            "count" : 20,
            "type" : "VEC2"
        },
        {
            "bufferView" : 16,
            "componentType" : 5126,
            "count" : 4,
            "max" : [
                2.052884578704834,
                0,
                0.5
            ],
            "min" : [
                -2.052884578704834,
                0,
                -0.5
            ],
            "type" : "VEC3"
        },
        {
            "bufferView" : 17,
            "componentType" : 5126,
            "count" : 4,
            "type" : "VEC2"
        },
        {
            "bufferView" : 18,
            "componentType" : 5123,
            "count" : 6,
            "type" : "SCALAR"
        },
        {
            "bufferView" : 20,
            "componentType" : 5126,
            "count" : 7321,
            "max" : [
                2.521199941635132,
                2.68149995803833,
                0.023900000378489494
            ],
            "min" : [
                -2.521199941635132,
                -1.229699969291687,
                -3.605799913406372
            ],
            "type" : "VEC3"
        },
        {
            "bufferView" : 21,
            "componentType" : 5126,
            "count" : 7321,
            "type" : "VEC2"
        },
        {
            "bufferView" : 22,
            "componentType" : 5123,
            "count" : 40944,
            "type" : "SCALAR"
        },
        {
            "bufferView" : 23,
            "componentType" : 5126,
            "count" : 29189,
            "max" : [
                0.16768886148929596,
                0.009992258623242378,
                -0.002740240655839443
            ],
            "min" : [
                0.0023918296210467815,
                -0.001270576030947268,
                -0.16980575025081635
            ],
            "type" : "VEC3"
        },
        {
            "bufferView" : 24,
            "componentType" : 5126,
            "count" : 29189,
            "type" : "VEC2"
        },
        {
            "bufferView" : 25,
            "componentType" : 5123,
            "count" : 120096,
            "type" : "SCALAR"
        },
        {
            "bufferView" : 26,
            "componentType" : 5126,
            "count" : 96,
            "max" : [
                -0.040937602519989014,
                0,
                -0.00219494616612792
            ],
            "min" : [
                -0.20863747596740723,
                -0.004999999888241291,
                -0.16983118653297424
            ],
            "type" : "VEC3"
        },
        {
            "bufferView" : 27,
            "componentType" : 5126,
            "count" : 96,
            "type" : "VEC2"
        },
        {
            "bufferView" : 28,
            "componentType" : 5123,
            "count" : 564,
            "type" : "SCALAR"
        }
    ],
    "bufferViews" : [
        {
            "buffer" : 0,
            "byteLength" : 144,
            "byteOffset" : 0
        },
        {
            "buffer" : 0,
            "byteLength" : 96,
            "byteOffset" : 144
        },
        {
            "buffer" : 0,
            "byteLength" : 84,
            "byteOffset" : 240
        },
        {
            "buffer" : 0,
            "byteLength" : 144,
            "byteOffset" : 324
        },
        {
            "buffer" : 0,
            "byteLength" : 96,
            "byteOffset" : 468
        },
        {
            "buffer" : 0,
            "byteLength" : 144,
            "byteOffset" : 564
        },
        {
            "buffer" : 0,
            "byteLength" : 96,
            "byteOffset" : 708
        },
        {
            "buffer" : 0,
            "byteLength" : 144,
            "byteOffset" : 804
        },
        {
            "buffer" : 0,
            "byteLength" : 96,
            "byteOffset" : 948
        },
        {
            "buffer" : 0,
            "byteLength" : 144,
            "byteOffset" : 1044
        },
        {
            "buffer" : 0,
            "byteLength" : 96,
            "byteOffset" : 1188
        },
        {
            "buffer" : 0,
            "byteLength" : 240,
            "byteOffset" : 1284
        },
        {
            "buffer" : 0,
            "byteLength" : 160,
            "byteOffset" : 1524
        },
        {
            "buffer" : 0,
            "byteLength" : 180,
            "byteOffset" : 1684
        },
        {
            "buffer" : 0,
            "byteLength" : 240,
            "byteOffset" : 1864
        },
        {
            "buffer" : 0,
            "byteLength" : 160,
            "byteOffset" : 2104
        },
        {
            "buffer" : 0,
            "byteLength" : 48,
            "byteOffset" : 2264
        },
        {
            "buffer" : 0,
            "byteLength" : 32,
            "byteOffset" : 2312
        },
        {
            "buffer" : 0,
            "byteLength" : 12,
            "byteOffset" : 2344
        },
        {
            "buffer" : 0,
            "byteLength" : 58392,
            "byteOffset" : 2356
        },
        {
            "buffer" : 0,
            "byteLength" : 87852,
            "byteOffset" : 60748
        },
        {
            "buffer" : 0,
            "byteLength" : 58568,
            "byteOffset" : 148600
        },
        {
            "buffer" : 0,
            "byteLength" : 81888,
            "byteOffset" : 207168
        },
        {
            "buffer" : 0,
            "byteLength" : 350268,
            "byteOffset" : 289056
        },
        {
            "buffer" : 0,
            "byteLength" : 233512,
            "byteOffset" : 639324
        },
        {
            "buffer" : 0,
            "byteLength" : 240192,
            "byteOffset" : 872836
        },
        {
            "buffer" : 0,
            "byteLength" : 1152,
            "byteOffset" : 1113028
        },
        {
            "buffer" : 0,
            "byteLength" : 768,
            "byteOffset" : 1114180
        },
        {
            "buffer" : 0,
            "byteLength" : 1128,
            "byteOffset" : 1114948
        }
    ],
    "samplers" : [
        {
            "magFilter" : 9729,
            "minFilter" : 9987,
            "wrapS" : 33071,
            "wrapT" : 33071
        }
    ],
    "buffers" : [
        {
            "byteLength" : 1116076,
            "uri" : "data:application/octet-stream;base64,"
        }
    ]
}
